<?xml version="1.0" encoding="UTF-8"?><svg width="100%" height="100%" version="1.1" viewBox="0 0  400 240" xmlns:xlink="http://www.w3.org/1999/xlink" xmlns="http://www.w3.org/2000/svg"><title>Kleines blaues Spielzeugauto</title><style>#turnkey-on {	opacity:1;	animation: switch 1s infinite alternate;}#turnkey-off {	opacity:0;	animation: switch 1s 0.5s infinite alternate;}@keyframes switch {	0% { opacity:1 }	50% { opacity:0 }	100% { opacity:1 }}#front,#back {	transform-box: fill-box;	transform-origin: 50% 50%;	animation: roll 2s infinite linear;}@keyframes roll {	to {transform: rotate(359deg)}}</style><linearGradient id="lg1" x1="0%" y1="0%" x2="100%" y2="0%">    <stop offset="20%" stop-color="hsl(220,40%,45%)" />    <stop offset="80%" stop-color="hsl(220,40%,10%)" /></linearGradient><linearGradient id="lg2" x1="0%" y1="0%" x2="100%" y2="0%">    <stop offset="20%" stop-color="hsl(220,10%,45%)" />    <stop offset="80%" stop-color="hsl(220,10%,10%)" /></linearGradient>	<g id="bluecar">	<g id="turnkey-on">		<path fill="#a7a9ac" d="m56.5 69.99c-2.4 2.41-3.8 5.57-4.1 8.81l.1.16c-.1.55-.1 1.12 0 1.71l-.1 11.52-11.5.1h-1.7-.2c-3.2.3-6.4 1.7-8.8 4.1-5.5 5.41-5.4 14.41 0 19.81 3.6 3.5 8.5 4.8 13 3.8l31.8-5.1 5.1-31.82c1-4.51-.2-9.45-3.8-12.97-5.4-5.47-14.4-5.48-19.8 0zm-23.4 29.2c3.9-3.9 10.2-4 14.1 0 3.9 3.91 3.9 10.21 0 14.11s-10.2 3.9-14.1 0c-4-3.9-3.9-10.2 0-14.11zm26.3-26.33c3.9-3.88 10.2-3.92 14.1 0s3.9 10.24 0 14.13c-3.9 3.9-10.2 3.9-14.1 0-4-3.92-3.9-10.25 0-14.14z"/>		<circle stroke-width="4" stroke-linecap="round" transform="rotate(-45)" stroke="#a7a9ac" cy="97.9" cx="-28.18" r="4.588" fill="none"/>	</g>	<g id="turnkey-off">		<path fill="#a7a9ac" d="m50.01 73.08c-1.4 1.41-1.8 3.57-1.4 6.1l.1.13c0 .43.2.87.4 1.35l2.3 9.1-9.1-2.3c-.5-.1-1-.25-1.4-.35h-.1c-2.5-.39-4.7 0-6.1 1.4-3.3 3.11-1.3 10.3 4.1 15.69 3.5 3.6 7.7 5.6 11.1 5.7l24.1 2.6-2.6-24.16c-.1-3.38-2.1-7.51-5.7-11.07-5.4-5.44-12.5-7.32-15.7-4.1zm-12.5 18.25c2.4-2.34 7.3-1.08 11.2 2.95 3.9 3.9 5.3 8.82 2.9 11.12-2.2 2.3-7.2 1-11.1-2.9-4-3.9-5.2-8.91-3-11.17zm15.4-15.42c2.3-2.26 7.3-.95 11.2 2.95 3.9 3.91 5.2 8.91 2.9 11.24-2.3 2.27-7.3.95-11.2-2.95-3.9-3.96-5.1-8.98-2.9-11.24z"/>		<ellipse stroke-linecap="round" rx="2.682" transform="rotate(-45)" stroke="#a7a9ac" ry="4.588" cy="95.54" cx="-27.13" stroke-width="3.059" fill="none"/>	</g>	<rect rx="10" transform="rotate(-45)" height="53.88" width="21.44" y="112.3" x="-38.17" fill="#d1d3d4"/>	<rect rx="10" transform="rotate(-45)" height="53.88" width="21.44" y="112.3" x="-38.17" fill="#c0c2c4"/>	<path fill="#d1d3d4" d="m60 98.49 38.1 38.11.3-.3c4-4 4-10.2 0-14.2l-23.9-23.91c-3.9-3.9-10.2-4-14.2 0l-.3.3z"/>	<circle cy="169.9" cx="43.12" r="8.69" fill="#ff5555"/>	<rect rx="4" height="27.81" width="26.65" y="159.1" x="41.41" fill="#ff8080"/>	<circle cy="161.8" cx="366.2" r="9.56" fill="#faad00"/>	<path d="m205.4 125 18.8 18.8" stroke="#000000" stroke-width="7" fill="none"/>	<path d="m195.6 133.1 18.8-18.8" stroke="#784421" stroke-linecap="round" stroke-width="12" fill="none"/>	<path d="m128.4 105.9 28.9 42.3" stroke="#784421" stroke-linecap="round" stroke-width="24" fill="#a05a2c"/>	<path fill="#dcebed" d="m250.6 118-34.2-39.96 14.5 58.56z"/>	<path fill="#51d2ff" d="m246.9 113.3a77.92 73 0 0 1 -64.4 31.9 77.92 73 0 0 1 -64.3 -31.8c-38.4 1.8-68.71 33.3-68.71 72.2v13h310.6v-13c0-40.1-32.3-72.3-72.3-72.3h-40.9z"/>	<path fill="#13b3eb" d="m49.57 182.3c0 1.1-.1 2.2-.1 3.3v13h310.6v-13c0-1.1 0-2.2-.1-3.3h-310.4z"/>	<path fill="#58595b" d="m361.2 145.8c-15.9 0-34.7 6.7-34.7 15.1 0 8.3 18.8 15 34.7 15 1.5 0 2.9 0 4.3-.2v-29.7c-1.4-.1-2.8-.2-4.3-.2z"/>	<path fill="#20c5ff" d="m361.2 145.8c-15.9 0-34.7 6.7-34.7 15.1 0 8.3 18.8 15 34.7 15 1.5 0 2.9 0 4.3-.2v-29.7c-1.4-.1-2.8-.2-4.3-.2z"/>	<path fill="#68d8ff" d="m361.2 145.8c-15.9 0-34.7 6.7-34.7 15.1v.5h39v-15.4c-1.4-.1-2.8-.2-4.3-.2z"/>	<path fill="#d1d3d4" d="m47.76 198c-2.22 0-4 1.8-4 4v6.5c0 2.2 1.78 4 4 4h23.04a38.82 38.82 0 0 1 -1 -8.7 38.82 38.82 0 0 1 .5 -5.8h-22.54zm99.24 0a38.82 38.82 0 0 1 .4 5.8 38.82 38.82 0 0 1 -1 8.7h104a38.82 38.82 0 0 1 -1 -8.7 38.82 38.82 0 0 1 .5 -5.8h-102.9zm179.6 0a38.82 38.82 0 0 1 .4 5.8 38.82 38.82 0 0 1 -1 8.7h36.5c2.2 0 4-1.8 4-4v-6.5c0-2.2-1.8-4-4-4h-35.9z"/>	<path style="solid-fill:#000000" d="m286.8 162c-21.4 0-38.9 17.5-38.9 38.9v1.8h9.1c-.1-.6-.1-1.2-.1-1.8 0-16.5 13.4-29.9 29.9-29.9s29.9 13.4 29.9 29.9c0 .6 0 1.2-.1 1.8h9.1v-1.8c0-21.4-17.5-38.9-38.9-38.9z" stroke-linecap="round" stroke-width="9"/>	<g id="front">		<circle cy="200" cx="286.8" r="30.1" fill="url(#lg1)"/>		<circle cy="200" cx="286.8" r="19.81" fill="url(#lg2)"/>		<circle stroke-width="6" stroke="#a7a9ac" cy="199.9" cx="286.8" r="12.74" fill="#d0d2d3"/>	</g>	<path style="solid-fill:#000000" d="m108.3 162c-21.4 0-38.9 17.5-38.9 38.9v1.8h9.1c-.1-.6-.1-1.2-.1-1.8 0-16.5 13.4-29.9 29.9-29.9s29.9 13.4 29.9 29.9c0 .6 0 1.2-.1 1.8h9.1v-1.8c0-21.4-17.5-38.9-38.9-38.9z" stroke-linecap="round" stroke-width="9.018"/>	<g id="back">		<circle cy="200" cx="108.3" r="30.1" fill="url(#lg1)"/>		<circle cy="200" cx="108.3" r="19.81" fill="url(#lg2)"/>		<circle stroke-width="6" stroke-linecap="round" stroke="#a7a9ac" cy="199.9" cx="108.3" r="12.74" fill="#d0d2d3"/>	</g>		</g></svg>